<mxfile host="Electron" agent="Mozilla/5.0 (Windows NT 10.0; Win64; x64) AppleWebKit/537.36 (KHTML, like Gecko) draw.io/26.0.16 Chrome/132.0.6834.196 Electron/34.2.0 Safari/537.36" version="26.0.16">
  <diagram name="Page-1" id="lhUoORWg_cU1pNjdTDmr">
    <mxGraphModel dx="862" dy="584" grid="1" gridSize="10" guides="1" tooltips="1" connect="1" arrows="1" fold="1" page="1" pageScale="1" pageWidth="850" pageHeight="1100" math="0" shadow="0">
      <root>
        <mxCell id="0" />
        <mxCell id="1" parent="0" />
        <mxCell id="USC5nnR-OYdE0HIRf4VA-5" style="edgeStyle=orthogonalEdgeStyle;rounded=0;orthogonalLoop=1;jettySize=auto;html=1;flowAnimation=1;" edge="1" parent="1" source="USC5nnR-OYdE0HIRf4VA-1" target="USC5nnR-OYdE0HIRf4VA-3">
          <mxGeometry relative="1" as="geometry" />
        </mxCell>
        <mxCell id="USC5nnR-OYdE0HIRf4VA-6" style="edgeStyle=orthogonalEdgeStyle;rounded=0;orthogonalLoop=1;jettySize=auto;html=1;entryX=0.5;entryY=1;entryDx=0;entryDy=0;flowAnimation=1;" edge="1" parent="1" source="USC5nnR-OYdE0HIRf4VA-1" target="USC5nnR-OYdE0HIRf4VA-4">
          <mxGeometry relative="1" as="geometry" />
        </mxCell>
        <mxCell id="USC5nnR-OYdE0HIRf4VA-7" style="edgeStyle=orthogonalEdgeStyle;rounded=0;orthogonalLoop=1;jettySize=auto;html=1;flowAnimation=1;" edge="1" parent="1" source="USC5nnR-OYdE0HIRf4VA-1" target="USC5nnR-OYdE0HIRf4VA-2">
          <mxGeometry relative="1" as="geometry" />
        </mxCell>
        <mxCell id="USC5nnR-OYdE0HIRf4VA-19" style="edgeStyle=orthogonalEdgeStyle;rounded=0;orthogonalLoop=1;jettySize=auto;html=1;flowAnimation=1;" edge="1" parent="1" source="USC5nnR-OYdE0HIRf4VA-1" target="USC5nnR-OYdE0HIRf4VA-8">
          <mxGeometry relative="1" as="geometry" />
        </mxCell>
        <mxCell id="USC5nnR-OYdE0HIRf4VA-1" value="Persona" style="whiteSpace=wrap;html=1;" vertex="1" parent="1">
          <mxGeometry x="150" y="170" width="120" height="60" as="geometry" />
        </mxCell>
        <mxCell id="USC5nnR-OYdE0HIRf4VA-2" value="dni" style="ellipse;whiteSpace=wrap;html=1;" vertex="1" parent="1">
          <mxGeometry x="110" y="80" width="80" height="30" as="geometry" />
        </mxCell>
        <mxCell id="USC5nnR-OYdE0HIRf4VA-3" value="nombre" style="ellipse;whiteSpace=wrap;html=1;" vertex="1" parent="1">
          <mxGeometry x="180" y="60" width="80" height="30" as="geometry" />
        </mxCell>
        <mxCell id="USC5nnR-OYdE0HIRf4VA-4" value="correo" style="ellipse;whiteSpace=wrap;html=1;" vertex="1" parent="1">
          <mxGeometry x="50" y="130" width="80" height="30" as="geometry" />
        </mxCell>
        <mxCell id="USC5nnR-OYdE0HIRf4VA-8" value="Permisos" style="rhombus;whiteSpace=wrap;html=1;" vertex="1" parent="1">
          <mxGeometry x="330" y="160" width="80" height="80" as="geometry" />
        </mxCell>
        <mxCell id="USC5nnR-OYdE0HIRf4VA-9" style="edgeStyle=orthogonalEdgeStyle;rounded=0;orthogonalLoop=1;jettySize=auto;html=1;flowAnimation=1;" edge="1" parent="1" source="USC5nnR-OYdE0HIRf4VA-12" target="USC5nnR-OYdE0HIRf4VA-14">
          <mxGeometry relative="1" as="geometry" />
        </mxCell>
        <mxCell id="USC5nnR-OYdE0HIRf4VA-11" style="edgeStyle=orthogonalEdgeStyle;rounded=0;orthogonalLoop=1;jettySize=auto;html=1;flowAnimation=1;" edge="1" parent="1" source="USC5nnR-OYdE0HIRf4VA-12" target="USC5nnR-OYdE0HIRf4VA-13">
          <mxGeometry relative="1" as="geometry" />
        </mxCell>
        <mxCell id="USC5nnR-OYdE0HIRf4VA-20" style="edgeStyle=orthogonalEdgeStyle;rounded=0;orthogonalLoop=1;jettySize=auto;html=1;entryX=1;entryY=0.5;entryDx=0;entryDy=0;flowAnimation=1;" edge="1" parent="1" source="USC5nnR-OYdE0HIRf4VA-12" target="USC5nnR-OYdE0HIRf4VA-8">
          <mxGeometry relative="1" as="geometry" />
        </mxCell>
        <mxCell id="USC5nnR-OYdE0HIRf4VA-12" value="Usuario" style="whiteSpace=wrap;html=1;" vertex="1" parent="1">
          <mxGeometry x="470" y="170" width="120" height="60" as="geometry" />
        </mxCell>
        <mxCell id="USC5nnR-OYdE0HIRf4VA-13" value="user" style="ellipse;whiteSpace=wrap;html=1;" vertex="1" parent="1">
          <mxGeometry x="400" y="30" width="80" height="30" as="geometry" />
        </mxCell>
        <mxCell id="USC5nnR-OYdE0HIRf4VA-14" value="password" style="ellipse;whiteSpace=wrap;html=1;" vertex="1" parent="1">
          <mxGeometry x="490" y="30" width="80" height="30" as="geometry" />
        </mxCell>
        <mxCell id="USC5nnR-OYdE0HIRf4VA-23" value="1-1" style="text;html=1;align=center;verticalAlign=middle;resizable=0;points=[];autosize=1;strokeColor=none;fillColor=none;" vertex="1" parent="1">
          <mxGeometry x="270" y="178" width="40" height="30" as="geometry" />
        </mxCell>
        <mxCell id="USC5nnR-OYdE0HIRf4VA-24" value="1-1" style="text;html=1;align=center;verticalAlign=middle;resizable=0;points=[];autosize=1;strokeColor=none;fillColor=none;" vertex="1" parent="1">
          <mxGeometry x="410" y="178" width="40" height="30" as="geometry" />
        </mxCell>
        <mxCell id="USC5nnR-OYdE0HIRf4VA-26" value="1-1" style="text;html=1;align=center;verticalAlign=middle;resizable=0;points=[];autosize=1;strokeColor=default;fillColor=none;glass=0;rounded=0;shadow=0;dashed=1;" vertex="1" parent="1">
          <mxGeometry x="350" y="130" width="40" height="30" as="geometry" />
        </mxCell>
        <mxCell id="USC5nnR-OYdE0HIRf4VA-27" style="edgeStyle=orthogonalEdgeStyle;rounded=0;orthogonalLoop=1;jettySize=auto;html=1;flowAnimation=1;" edge="1" parent="1" source="USC5nnR-OYdE0HIRf4VA-31" target="USC5nnR-OYdE0HIRf4VA-33">
          <mxGeometry relative="1" as="geometry" />
        </mxCell>
        <mxCell id="USC5nnR-OYdE0HIRf4VA-28" style="edgeStyle=orthogonalEdgeStyle;rounded=0;orthogonalLoop=1;jettySize=auto;html=1;entryX=0.5;entryY=1;entryDx=0;entryDy=0;flowAnimation=1;" edge="1" parent="1" source="USC5nnR-OYdE0HIRf4VA-31" target="USC5nnR-OYdE0HIRf4VA-34">
          <mxGeometry relative="1" as="geometry" />
        </mxCell>
        <mxCell id="USC5nnR-OYdE0HIRf4VA-29" style="edgeStyle=orthogonalEdgeStyle;rounded=0;orthogonalLoop=1;jettySize=auto;html=1;flowAnimation=1;" edge="1" parent="1" source="USC5nnR-OYdE0HIRf4VA-31" target="USC5nnR-OYdE0HIRf4VA-32">
          <mxGeometry relative="1" as="geometry" />
        </mxCell>
        <mxCell id="USC5nnR-OYdE0HIRf4VA-30" style="edgeStyle=orthogonalEdgeStyle;rounded=0;orthogonalLoop=1;jettySize=auto;html=1;flowAnimation=1;" edge="1" parent="1" source="USC5nnR-OYdE0HIRf4VA-31" target="USC5nnR-OYdE0HIRf4VA-35">
          <mxGeometry relative="1" as="geometry" />
        </mxCell>
        <mxCell id="USC5nnR-OYdE0HIRf4VA-31" value="Producto" style="whiteSpace=wrap;html=1;" vertex="1" parent="1">
          <mxGeometry x="160" y="440" width="120" height="60" as="geometry" />
        </mxCell>
        <mxCell id="USC5nnR-OYdE0HIRf4VA-32" value="nombre" style="ellipse;whiteSpace=wrap;html=1;" vertex="1" parent="1">
          <mxGeometry x="120" y="350" width="80" height="30" as="geometry" />
        </mxCell>
        <mxCell id="USC5nnR-OYdE0HIRf4VA-33" value="precio" style="ellipse;whiteSpace=wrap;html=1;" vertex="1" parent="1">
          <mxGeometry x="190" y="330" width="80" height="30" as="geometry" />
        </mxCell>
        <mxCell id="USC5nnR-OYdE0HIRf4VA-34" value="codigo" style="ellipse;whiteSpace=wrap;html=1;" vertex="1" parent="1">
          <mxGeometry x="60" y="400" width="80" height="30" as="geometry" />
        </mxCell>
        <mxCell id="USC5nnR-OYdE0HIRf4VA-35" value="Pertenece" style="rhombus;whiteSpace=wrap;html=1;" vertex="1" parent="1">
          <mxGeometry x="340" y="430" width="80" height="80" as="geometry" />
        </mxCell>
        <mxCell id="USC5nnR-OYdE0HIRf4VA-36" style="edgeStyle=orthogonalEdgeStyle;rounded=0;orthogonalLoop=1;jettySize=auto;html=1;flowAnimation=1;" edge="1" parent="1" source="USC5nnR-OYdE0HIRf4VA-39" target="USC5nnR-OYdE0HIRf4VA-41">
          <mxGeometry relative="1" as="geometry" />
        </mxCell>
        <mxCell id="USC5nnR-OYdE0HIRf4VA-37" style="edgeStyle=orthogonalEdgeStyle;rounded=0;orthogonalLoop=1;jettySize=auto;html=1;flowAnimation=1;" edge="1" parent="1" source="USC5nnR-OYdE0HIRf4VA-39" target="USC5nnR-OYdE0HIRf4VA-40">
          <mxGeometry relative="1" as="geometry" />
        </mxCell>
        <mxCell id="USC5nnR-OYdE0HIRf4VA-38" style="edgeStyle=orthogonalEdgeStyle;rounded=0;orthogonalLoop=1;jettySize=auto;html=1;entryX=1;entryY=0.5;entryDx=0;entryDy=0;flowAnimation=1;" edge="1" parent="1" source="USC5nnR-OYdE0HIRf4VA-39" target="USC5nnR-OYdE0HIRf4VA-35">
          <mxGeometry relative="1" as="geometry" />
        </mxCell>
        <mxCell id="USC5nnR-OYdE0HIRf4VA-39" value="Categoria" style="whiteSpace=wrap;html=1;" vertex="1" parent="1">
          <mxGeometry x="480" y="440" width="120" height="60" as="geometry" />
        </mxCell>
        <mxCell id="USC5nnR-OYdE0HIRf4VA-40" value="codigo" style="ellipse;whiteSpace=wrap;html=1;" vertex="1" parent="1">
          <mxGeometry x="410" y="300" width="80" height="30" as="geometry" />
        </mxCell>
        <mxCell id="USC5nnR-OYdE0HIRf4VA-41" value="nombre" style="ellipse;whiteSpace=wrap;html=1;" vertex="1" parent="1">
          <mxGeometry x="500" y="300" width="80" height="30" as="geometry" />
        </mxCell>
        <mxCell id="USC5nnR-OYdE0HIRf4VA-42" value="1-1" style="text;html=1;align=center;verticalAlign=middle;resizable=0;points=[];autosize=1;strokeColor=none;fillColor=none;" vertex="1" parent="1">
          <mxGeometry x="280" y="448" width="40" height="30" as="geometry" />
        </mxCell>
        <mxCell id="USC5nnR-OYdE0HIRf4VA-43" value="1-n" style="text;html=1;align=center;verticalAlign=middle;resizable=0;points=[];autosize=1;strokeColor=none;fillColor=none;" vertex="1" parent="1">
          <mxGeometry x="420" y="448" width="40" height="30" as="geometry" />
        </mxCell>
        <mxCell id="USC5nnR-OYdE0HIRf4VA-44" value="1 - n" style="text;html=1;align=center;verticalAlign=middle;resizable=0;points=[];autosize=1;strokeColor=default;fillColor=none;glass=0;rounded=0;shadow=0;dashed=1;" vertex="1" parent="1">
          <mxGeometry x="355" y="400" width="50" height="30" as="geometry" />
        </mxCell>
        <mxCell id="USC5nnR-OYdE0HIRf4VA-46" style="edgeStyle=orthogonalEdgeStyle;rounded=0;orthogonalLoop=1;jettySize=auto;html=1;entryX=0.5;entryY=1;entryDx=0;entryDy=0;flowAnimation=1;" edge="1" parent="1" source="USC5nnR-OYdE0HIRf4VA-49" target="USC5nnR-OYdE0HIRf4VA-52">
          <mxGeometry relative="1" as="geometry" />
        </mxCell>
        <mxCell id="USC5nnR-OYdE0HIRf4VA-47" style="edgeStyle=orthogonalEdgeStyle;rounded=0;orthogonalLoop=1;jettySize=auto;html=1;flowAnimation=1;" edge="1" parent="1" source="USC5nnR-OYdE0HIRf4VA-49" target="USC5nnR-OYdE0HIRf4VA-50">
          <mxGeometry relative="1" as="geometry" />
        </mxCell>
        <mxCell id="USC5nnR-OYdE0HIRf4VA-48" style="edgeStyle=orthogonalEdgeStyle;rounded=0;orthogonalLoop=1;jettySize=auto;html=1;flowAnimation=1;" edge="1" parent="1" source="USC5nnR-OYdE0HIRf4VA-49" target="USC5nnR-OYdE0HIRf4VA-53">
          <mxGeometry relative="1" as="geometry" />
        </mxCell>
        <mxCell id="USC5nnR-OYdE0HIRf4VA-49" value="Categoria" style="whiteSpace=wrap;html=1;" vertex="1" parent="1">
          <mxGeometry x="180" y="710" width="120" height="60" as="geometry" />
        </mxCell>
        <mxCell id="USC5nnR-OYdE0HIRf4VA-50" value="nombre" style="ellipse;whiteSpace=wrap;html=1;" vertex="1" parent="1">
          <mxGeometry x="140" y="620" width="80" height="30" as="geometry" />
        </mxCell>
        <mxCell id="USC5nnR-OYdE0HIRf4VA-52" value="codigo" style="ellipse;whiteSpace=wrap;html=1;" vertex="1" parent="1">
          <mxGeometry x="80" y="670" width="80" height="30" as="geometry" />
        </mxCell>
        <mxCell id="USC5nnR-OYdE0HIRf4VA-53" value="Tiene" style="rhombus;whiteSpace=wrap;html=1;" vertex="1" parent="1">
          <mxGeometry x="360" y="700" width="80" height="80" as="geometry" />
        </mxCell>
        <mxCell id="USC5nnR-OYdE0HIRf4VA-54" style="edgeStyle=orthogonalEdgeStyle;rounded=0;orthogonalLoop=1;jettySize=auto;html=1;flowAnimation=1;" edge="1" parent="1" source="USC5nnR-OYdE0HIRf4VA-57" target="USC5nnR-OYdE0HIRf4VA-59">
          <mxGeometry relative="1" as="geometry" />
        </mxCell>
        <mxCell id="USC5nnR-OYdE0HIRf4VA-55" style="edgeStyle=orthogonalEdgeStyle;rounded=0;orthogonalLoop=1;jettySize=auto;html=1;flowAnimation=1;" edge="1" parent="1" source="USC5nnR-OYdE0HIRf4VA-57" target="USC5nnR-OYdE0HIRf4VA-58">
          <mxGeometry relative="1" as="geometry" />
        </mxCell>
        <mxCell id="USC5nnR-OYdE0HIRf4VA-56" style="edgeStyle=orthogonalEdgeStyle;rounded=0;orthogonalLoop=1;jettySize=auto;html=1;entryX=1;entryY=0.5;entryDx=0;entryDy=0;flowAnimation=1;" edge="1" parent="1" source="USC5nnR-OYdE0HIRf4VA-57" target="USC5nnR-OYdE0HIRf4VA-53">
          <mxGeometry relative="1" as="geometry" />
        </mxCell>
        <mxCell id="USC5nnR-OYdE0HIRf4VA-64" style="edgeStyle=orthogonalEdgeStyle;rounded=0;orthogonalLoop=1;jettySize=auto;html=1;entryX=0.5;entryY=1;entryDx=0;entryDy=0;flowAnimation=1;" edge="1" parent="1" source="USC5nnR-OYdE0HIRf4VA-57" target="USC5nnR-OYdE0HIRf4VA-63">
          <mxGeometry relative="1" as="geometry" />
        </mxCell>
        <mxCell id="USC5nnR-OYdE0HIRf4VA-57" value="Producto" style="whiteSpace=wrap;html=1;" vertex="1" parent="1">
          <mxGeometry x="500" y="710" width="120" height="60" as="geometry" />
        </mxCell>
        <mxCell id="USC5nnR-OYdE0HIRf4VA-58" value="codigo" style="ellipse;whiteSpace=wrap;html=1;" vertex="1" parent="1">
          <mxGeometry x="430" y="570" width="80" height="30" as="geometry" />
        </mxCell>
        <mxCell id="USC5nnR-OYdE0HIRf4VA-59" value="nombre" style="ellipse;whiteSpace=wrap;html=1;" vertex="1" parent="1">
          <mxGeometry x="520" y="570" width="80" height="30" as="geometry" />
        </mxCell>
        <mxCell id="USC5nnR-OYdE0HIRf4VA-60" value="1-n" style="text;html=1;align=center;verticalAlign=middle;resizable=0;points=[];autosize=1;strokeColor=none;fillColor=none;" vertex="1" parent="1">
          <mxGeometry x="300" y="718" width="40" height="30" as="geometry" />
        </mxCell>
        <mxCell id="USC5nnR-OYdE0HIRf4VA-61" value="1-1" style="text;html=1;align=center;verticalAlign=middle;resizable=0;points=[];autosize=1;strokeColor=none;fillColor=none;" vertex="1" parent="1">
          <mxGeometry x="440" y="718" width="40" height="30" as="geometry" />
        </mxCell>
        <mxCell id="USC5nnR-OYdE0HIRf4VA-62" value="1 - n" style="text;html=1;align=center;verticalAlign=middle;resizable=0;points=[];autosize=1;strokeColor=default;fillColor=none;glass=0;rounded=0;shadow=0;dashed=1;" vertex="1" parent="1">
          <mxGeometry x="375" y="670" width="50" height="30" as="geometry" />
        </mxCell>
        <mxCell id="USC5nnR-OYdE0HIRf4VA-63" value="precio" style="ellipse;whiteSpace=wrap;html=1;" vertex="1" parent="1">
          <mxGeometry x="570" y="610" width="80" height="30" as="geometry" />
        </mxCell>
        <mxCell id="USC5nnR-OYdE0HIRf4VA-65" style="edgeStyle=orthogonalEdgeStyle;rounded=0;orthogonalLoop=1;jettySize=auto;html=1;flowAnimation=1;" edge="1" parent="1" source="USC5nnR-OYdE0HIRf4VA-68" target="USC5nnR-OYdE0HIRf4VA-70">
          <mxGeometry relative="1" as="geometry" />
        </mxCell>
        <mxCell id="USC5nnR-OYdE0HIRf4VA-66" style="edgeStyle=orthogonalEdgeStyle;rounded=0;orthogonalLoop=1;jettySize=auto;html=1;entryX=0.5;entryY=1;entryDx=0;entryDy=0;flowAnimation=1;" edge="1" parent="1" source="USC5nnR-OYdE0HIRf4VA-68" target="USC5nnR-OYdE0HIRf4VA-71">
          <mxGeometry relative="1" as="geometry" />
        </mxCell>
        <mxCell id="USC5nnR-OYdE0HIRf4VA-67" style="edgeStyle=orthogonalEdgeStyle;rounded=0;orthogonalLoop=1;jettySize=auto;html=1;flowAnimation=1;" edge="1" parent="1" source="USC5nnR-OYdE0HIRf4VA-68" target="USC5nnR-OYdE0HIRf4VA-69">
          <mxGeometry relative="1" as="geometry" />
        </mxCell>
        <mxCell id="USC5nnR-OYdE0HIRf4VA-68" value="Persona" style="whiteSpace=wrap;html=1;" vertex="1" parent="1">
          <mxGeometry x="160" y="1240" width="120" height="60" as="geometry" />
        </mxCell>
        <mxCell id="USC5nnR-OYdE0HIRf4VA-69" value="dni" style="ellipse;whiteSpace=wrap;html=1;" vertex="1" parent="1">
          <mxGeometry x="110" y="1140" width="80" height="30" as="geometry" />
        </mxCell>
        <mxCell id="USC5nnR-OYdE0HIRf4VA-70" value="nombre" style="ellipse;whiteSpace=wrap;html=1;" vertex="1" parent="1">
          <mxGeometry x="180" y="1120" width="80" height="30" as="geometry" />
        </mxCell>
        <mxCell id="USC5nnR-OYdE0HIRf4VA-71" value="edad" style="ellipse;whiteSpace=wrap;html=1;fillColor=#f8cecc;strokeColor=#b85450;" vertex="1" parent="1">
          <mxGeometry x="50" y="1190" width="80" height="30" as="geometry" />
        </mxCell>
        <mxCell id="USC5nnR-OYdE0HIRf4VA-72" value="fecha_nacimiento" style="ellipse;whiteSpace=wrap;html=1;fillColor=#d5e8d4;strokeColor=#82b366;" vertex="1" parent="1">
          <mxGeometry x="100" y="1350" width="100" height="40" as="geometry" />
        </mxCell>
        <mxCell id="USC5nnR-OYdE0HIRf4VA-73" style="edgeStyle=orthogonalEdgeStyle;rounded=0;orthogonalLoop=1;jettySize=auto;html=1;entryX=0.583;entryY=0.05;entryDx=0;entryDy=0;entryPerimeter=0;flowAnimation=1;" edge="1" parent="1" source="USC5nnR-OYdE0HIRf4VA-68" target="USC5nnR-OYdE0HIRf4VA-72">
          <mxGeometry relative="1" as="geometry" />
        </mxCell>
        <mxCell id="USC5nnR-OYdE0HIRf4VA-74" value="21/05/2005" style="text;html=1;align=center;verticalAlign=middle;whiteSpace=wrap;rounded=0;shadow=0;strokeColor=default;dashed=1;" vertex="1" parent="1">
          <mxGeometry x="70" y="1320" width="60" height="30" as="geometry" />
        </mxCell>
        <mxCell id="USC5nnR-OYdE0HIRf4VA-76" value="21" style="text;html=1;align=center;verticalAlign=middle;whiteSpace=wrap;rounded=0;shadow=0;strokeColor=default;dashed=1;" vertex="1" parent="1">
          <mxGeometry x="30" y="1150" width="60" height="30" as="geometry" />
        </mxCell>
        <mxCell id="USC5nnR-OYdE0HIRf4VA-77" value="21/05/2005 -now()" style="text;html=1;align=center;verticalAlign=middle;whiteSpace=wrap;rounded=0;shadow=0;strokeColor=default;dashed=1;" vertex="1" parent="1">
          <mxGeometry x="60" y="1400" width="100" height="20" as="geometry" />
        </mxCell>
        <mxCell id="USC5nnR-OYdE0HIRf4VA-78" style="edgeStyle=orthogonalEdgeStyle;rounded=0;orthogonalLoop=1;jettySize=auto;html=1;entryX=0.5;entryY=1;entryDx=0;entryDy=0;flowAnimation=1;" edge="1" parent="1" source="USC5nnR-OYdE0HIRf4VA-81" target="USC5nnR-OYdE0HIRf4VA-83">
          <mxGeometry relative="1" as="geometry" />
        </mxCell>
        <mxCell id="USC5nnR-OYdE0HIRf4VA-79" style="edgeStyle=orthogonalEdgeStyle;rounded=0;orthogonalLoop=1;jettySize=auto;html=1;flowAnimation=1;" edge="1" parent="1" source="USC5nnR-OYdE0HIRf4VA-81" target="USC5nnR-OYdE0HIRf4VA-82">
          <mxGeometry relative="1" as="geometry" />
        </mxCell>
        <mxCell id="USC5nnR-OYdE0HIRf4VA-80" style="edgeStyle=orthogonalEdgeStyle;rounded=0;orthogonalLoop=1;jettySize=auto;html=1;flowAnimation=1;" edge="1" parent="1" source="USC5nnR-OYdE0HIRf4VA-81" target="USC5nnR-OYdE0HIRf4VA-84">
          <mxGeometry relative="1" as="geometry" />
        </mxCell>
        <mxCell id="USC5nnR-OYdE0HIRf4VA-81" value="Categoria" style="whiteSpace=wrap;html=1;" vertex="1" parent="1">
          <mxGeometry x="160" y="1630" width="120" height="60" as="geometry" />
        </mxCell>
        <mxCell id="USC5nnR-OYdE0HIRf4VA-82" value="nombre" style="ellipse;whiteSpace=wrap;html=1;" vertex="1" parent="1">
          <mxGeometry x="120" y="1540" width="80" height="30" as="geometry" />
        </mxCell>
        <mxCell id="USC5nnR-OYdE0HIRf4VA-83" value="codigo" style="ellipse;whiteSpace=wrap;html=1;" vertex="1" parent="1">
          <mxGeometry x="60" y="1590" width="80" height="30" as="geometry" />
        </mxCell>
        <mxCell id="USC5nnR-OYdE0HIRf4VA-84" value="Tiene" style="rhombus;whiteSpace=wrap;html=1;" vertex="1" parent="1">
          <mxGeometry x="340" y="1620" width="80" height="80" as="geometry" />
        </mxCell>
        <mxCell id="USC5nnR-OYdE0HIRf4VA-85" style="edgeStyle=orthogonalEdgeStyle;rounded=0;orthogonalLoop=1;jettySize=auto;html=1;flowAnimation=1;" edge="1" parent="1" source="USC5nnR-OYdE0HIRf4VA-89" target="USC5nnR-OYdE0HIRf4VA-91">
          <mxGeometry relative="1" as="geometry" />
        </mxCell>
        <mxCell id="USC5nnR-OYdE0HIRf4VA-86" style="edgeStyle=orthogonalEdgeStyle;rounded=0;orthogonalLoop=1;jettySize=auto;html=1;flowAnimation=1;" edge="1" parent="1" source="USC5nnR-OYdE0HIRf4VA-89" target="USC5nnR-OYdE0HIRf4VA-90">
          <mxGeometry relative="1" as="geometry" />
        </mxCell>
        <mxCell id="USC5nnR-OYdE0HIRf4VA-87" style="edgeStyle=orthogonalEdgeStyle;rounded=0;orthogonalLoop=1;jettySize=auto;html=1;entryX=1;entryY=0.5;entryDx=0;entryDy=0;flowAnimation=1;" edge="1" parent="1" source="USC5nnR-OYdE0HIRf4VA-89" target="USC5nnR-OYdE0HIRf4VA-84">
          <mxGeometry relative="1" as="geometry" />
        </mxCell>
        <mxCell id="USC5nnR-OYdE0HIRf4VA-88" style="edgeStyle=orthogonalEdgeStyle;rounded=0;orthogonalLoop=1;jettySize=auto;html=1;entryX=0.5;entryY=1;entryDx=0;entryDy=0;flowAnimation=1;" edge="1" parent="1" source="USC5nnR-OYdE0HIRf4VA-89">
          <mxGeometry relative="1" as="geometry">
            <mxPoint x="590" y="1560" as="targetPoint" />
          </mxGeometry>
        </mxCell>
        <mxCell id="USC5nnR-OYdE0HIRf4VA-128" style="edgeStyle=orthogonalEdgeStyle;rounded=0;orthogonalLoop=1;jettySize=auto;html=1;" edge="1" parent="1" source="USC5nnR-OYdE0HIRf4VA-89" target="USC5nnR-OYdE0HIRf4VA-127">
          <mxGeometry relative="1" as="geometry" />
        </mxCell>
        <mxCell id="USC5nnR-OYdE0HIRf4VA-89" value="Producto" style="whiteSpace=wrap;html=1;" vertex="1" parent="1">
          <mxGeometry x="480" y="1630" width="120" height="60" as="geometry" />
        </mxCell>
        <mxCell id="USC5nnR-OYdE0HIRf4VA-90" value="codigo" style="ellipse;whiteSpace=wrap;html=1;" vertex="1" parent="1">
          <mxGeometry x="410" y="1490" width="80" height="30" as="geometry" />
        </mxCell>
        <mxCell id="USC5nnR-OYdE0HIRf4VA-91" value="nombre" style="ellipse;whiteSpace=wrap;html=1;" vertex="1" parent="1">
          <mxGeometry x="500" y="1490" width="80" height="30" as="geometry" />
        </mxCell>
        <mxCell id="USC5nnR-OYdE0HIRf4VA-92" value="1-n" style="text;html=1;align=center;verticalAlign=middle;resizable=0;points=[];autosize=1;strokeColor=none;fillColor=none;" vertex="1" parent="1">
          <mxGeometry x="280" y="1638" width="40" height="30" as="geometry" />
        </mxCell>
        <mxCell id="USC5nnR-OYdE0HIRf4VA-93" value="1-1" style="text;html=1;align=center;verticalAlign=middle;resizable=0;points=[];autosize=1;strokeColor=none;fillColor=none;" vertex="1" parent="1">
          <mxGeometry x="420" y="1638" width="40" height="30" as="geometry" />
        </mxCell>
        <mxCell id="USC5nnR-OYdE0HIRf4VA-94" value="1 - n" style="text;html=1;align=center;verticalAlign=middle;resizable=0;points=[];autosize=1;strokeColor=default;fillColor=none;glass=0;rounded=0;shadow=0;dashed=1;" vertex="1" parent="1">
          <mxGeometry x="355" y="1590" width="50" height="30" as="geometry" />
        </mxCell>
        <mxCell id="USC5nnR-OYdE0HIRf4VA-97" style="edgeStyle=orthogonalEdgeStyle;rounded=0;orthogonalLoop=1;jettySize=auto;html=1;entryX=0.5;entryY=1;entryDx=0;entryDy=0;flowAnimation=1;" edge="1" parent="1" source="USC5nnR-OYdE0HIRf4VA-99" target="USC5nnR-OYdE0HIRf4VA-101">
          <mxGeometry relative="1" as="geometry" />
        </mxCell>
        <mxCell id="USC5nnR-OYdE0HIRf4VA-98" style="edgeStyle=orthogonalEdgeStyle;rounded=0;orthogonalLoop=1;jettySize=auto;html=1;flowAnimation=1;" edge="1" parent="1" source="USC5nnR-OYdE0HIRf4VA-99" target="USC5nnR-OYdE0HIRf4VA-100">
          <mxGeometry relative="1" as="geometry" />
        </mxCell>
        <mxCell id="USC5nnR-OYdE0HIRf4VA-118" style="edgeStyle=orthogonalEdgeStyle;rounded=0;orthogonalLoop=1;jettySize=auto;html=1;entryX=0.5;entryY=0;entryDx=0;entryDy=0;flowAnimation=1;" edge="1" parent="1" source="USC5nnR-OYdE0HIRf4VA-99" target="USC5nnR-OYdE0HIRf4VA-116">
          <mxGeometry relative="1" as="geometry" />
        </mxCell>
        <mxCell id="USC5nnR-OYdE0HIRf4VA-134" style="edgeStyle=orthogonalEdgeStyle;rounded=0;orthogonalLoop=1;jettySize=auto;html=1;entryX=0;entryY=0.5;entryDx=0;entryDy=0;flowAnimation=1;" edge="1" parent="1" source="USC5nnR-OYdE0HIRf4VA-99" target="USC5nnR-OYdE0HIRf4VA-133">
          <mxGeometry relative="1" as="geometry" />
        </mxCell>
        <mxCell id="USC5nnR-OYdE0HIRf4VA-99" value="Factura" style="whiteSpace=wrap;html=1;" vertex="1" parent="1">
          <mxGeometry x="150" y="1830" width="120" height="60" as="geometry" />
        </mxCell>
        <mxCell id="USC5nnR-OYdE0HIRf4VA-100" value="fecha" style="ellipse;whiteSpace=wrap;html=1;" vertex="1" parent="1">
          <mxGeometry x="110" y="1740" width="80" height="30" as="geometry" />
        </mxCell>
        <mxCell id="USC5nnR-OYdE0HIRf4VA-101" value="valor_pagar" style="ellipse;whiteSpace=wrap;html=1;" vertex="1" parent="1">
          <mxGeometry x="50" y="1790" width="80" height="30" as="geometry" />
        </mxCell>
        <mxCell id="USC5nnR-OYdE0HIRf4VA-104" style="edgeStyle=orthogonalEdgeStyle;rounded=0;orthogonalLoop=1;jettySize=auto;html=1;flowAnimation=1;" edge="1" parent="1" source="USC5nnR-OYdE0HIRf4VA-107" target="USC5nnR-OYdE0HIRf4VA-109">
          <mxGeometry relative="1" as="geometry" />
        </mxCell>
        <mxCell id="USC5nnR-OYdE0HIRf4VA-106" style="edgeStyle=orthogonalEdgeStyle;rounded=0;orthogonalLoop=1;jettySize=auto;html=1;flowAnimation=1;" edge="1" parent="1" source="USC5nnR-OYdE0HIRf4VA-107" target="USC5nnR-OYdE0HIRf4VA-108">
          <mxGeometry relative="1" as="geometry" />
        </mxCell>
        <mxCell id="USC5nnR-OYdE0HIRf4VA-117" style="edgeStyle=orthogonalEdgeStyle;rounded=0;orthogonalLoop=1;jettySize=auto;html=1;entryX=0.5;entryY=1;entryDx=0;entryDy=0;flowAnimation=1;" edge="1" parent="1" source="USC5nnR-OYdE0HIRf4VA-107" target="USC5nnR-OYdE0HIRf4VA-116">
          <mxGeometry relative="1" as="geometry">
            <mxPoint x="310" y="2030" as="targetPoint" />
          </mxGeometry>
        </mxCell>
        <mxCell id="USC5nnR-OYdE0HIRf4VA-120" value="1-n" style="edgeLabel;html=1;align=center;verticalAlign=middle;resizable=0;points=[];" vertex="1" connectable="0" parent="USC5nnR-OYdE0HIRf4VA-117">
          <mxGeometry x="-0.3766" y="2" relative="1" as="geometry">
            <mxPoint x="-4" y="-8" as="offset" />
          </mxGeometry>
        </mxCell>
        <mxCell id="USC5nnR-OYdE0HIRf4VA-107" value="Persona" style="whiteSpace=wrap;html=1;" vertex="1" parent="1">
          <mxGeometry x="140" y="2050" width="120" height="60" as="geometry" />
        </mxCell>
        <mxCell id="USC5nnR-OYdE0HIRf4VA-108" value="dni" style="ellipse;whiteSpace=wrap;html=1;" vertex="1" parent="1">
          <mxGeometry x="20" y="2030" width="80" height="30" as="geometry" />
        </mxCell>
        <mxCell id="USC5nnR-OYdE0HIRf4VA-109" value="nombre" style="ellipse;whiteSpace=wrap;html=1;" vertex="1" parent="1">
          <mxGeometry x="80" y="1990" width="80" height="30" as="geometry" />
        </mxCell>
        <mxCell id="USC5nnR-OYdE0HIRf4VA-111" value="fecha_nacimiento" style="ellipse;whiteSpace=wrap;html=1;fillColor=#d5e8d4;strokeColor=#82b366;" vertex="1" parent="1">
          <mxGeometry x="20" y="2120" width="100" height="40" as="geometry" />
        </mxCell>
        <mxCell id="USC5nnR-OYdE0HIRf4VA-112" style="edgeStyle=orthogonalEdgeStyle;rounded=0;orthogonalLoop=1;jettySize=auto;html=1;entryX=0.583;entryY=0.05;entryDx=0;entryDy=0;entryPerimeter=0;flowAnimation=1;" edge="1" parent="1" source="USC5nnR-OYdE0HIRf4VA-107" target="USC5nnR-OYdE0HIRf4VA-111">
          <mxGeometry relative="1" as="geometry" />
        </mxCell>
        <mxCell id="USC5nnR-OYdE0HIRf4VA-116" value="Tiene" style="rhombus;whiteSpace=wrap;html=1;" vertex="1" parent="1">
          <mxGeometry x="270" y="1940" width="80" height="80" as="geometry" />
        </mxCell>
        <mxCell id="USC5nnR-OYdE0HIRf4VA-119" value="1-1" style="text;html=1;align=center;verticalAlign=middle;resizable=0;points=[];autosize=1;strokeColor=none;fillColor=none;" vertex="1" parent="1">
          <mxGeometry x="210" y="1888" width="40" height="30" as="geometry" />
        </mxCell>
        <mxCell id="USC5nnR-OYdE0HIRf4VA-121" value="1-n" style="edgeLabel;html=1;align=center;verticalAlign=middle;resizable=0;points=[];" vertex="1" connectable="0" parent="1">
          <mxGeometry x="359.9957142857144" y="1980.0000000000005" as="geometry">
            <mxPoint x="2" y="-2" as="offset" />
          </mxGeometry>
        </mxCell>
        <mxCell id="USC5nnR-OYdE0HIRf4VA-122" style="edgeStyle=orthogonalEdgeStyle;rounded=0;orthogonalLoop=1;jettySize=auto;html=1;entryX=0.5;entryY=1;entryDx=0;entryDy=0;flowAnimation=1;" edge="1" parent="1" source="USC5nnR-OYdE0HIRf4VA-124" target="USC5nnR-OYdE0HIRf4VA-126">
          <mxGeometry relative="1" as="geometry" />
        </mxCell>
        <mxCell id="USC5nnR-OYdE0HIRf4VA-123" style="edgeStyle=orthogonalEdgeStyle;rounded=0;orthogonalLoop=1;jettySize=auto;html=1;flowAnimation=1;" edge="1" parent="1" source="USC5nnR-OYdE0HIRf4VA-124" target="USC5nnR-OYdE0HIRf4VA-125">
          <mxGeometry relative="1" as="geometry" />
        </mxCell>
        <mxCell id="USC5nnR-OYdE0HIRf4VA-129" value="" style="edgeStyle=orthogonalEdgeStyle;rounded=0;orthogonalLoop=1;jettySize=auto;html=1;flowAnimation=1;" edge="1" parent="1" source="USC5nnR-OYdE0HIRf4VA-124" target="USC5nnR-OYdE0HIRf4VA-127">
          <mxGeometry relative="1" as="geometry" />
        </mxCell>
        <mxCell id="USC5nnR-OYdE0HIRf4VA-135" style="edgeStyle=orthogonalEdgeStyle;rounded=0;orthogonalLoop=1;jettySize=auto;html=1;entryX=1;entryY=0.5;entryDx=0;entryDy=0;flowAnimation=1;" edge="1" parent="1" source="USC5nnR-OYdE0HIRf4VA-124" target="USC5nnR-OYdE0HIRf4VA-133">
          <mxGeometry relative="1" as="geometry" />
        </mxCell>
        <mxCell id="USC5nnR-OYdE0HIRf4VA-124" value="DetalleFactura" style="whiteSpace=wrap;html=1;" vertex="1" parent="1">
          <mxGeometry x="480" y="1858" width="120" height="60" as="geometry" />
        </mxCell>
        <mxCell id="USC5nnR-OYdE0HIRf4VA-125" value="fecha" style="ellipse;whiteSpace=wrap;html=1;" vertex="1" parent="1">
          <mxGeometry x="600" y="1740" width="80" height="30" as="geometry" />
        </mxCell>
        <mxCell id="USC5nnR-OYdE0HIRf4VA-126" value="valor_pagar" style="ellipse;whiteSpace=wrap;html=1;" vertex="1" parent="1">
          <mxGeometry x="630" y="1820" width="80" height="30" as="geometry" />
        </mxCell>
        <mxCell id="USC5nnR-OYdE0HIRf4VA-127" value="Tiene" style="rhombus;whiteSpace=wrap;html=1;" vertex="1" parent="1">
          <mxGeometry x="500" y="1730" width="80" height="80" as="geometry" />
        </mxCell>
        <mxCell id="USC5nnR-OYdE0HIRf4VA-130" value="1-n" style="text;html=1;align=center;verticalAlign=middle;resizable=0;points=[];autosize=1;strokeColor=none;fillColor=none;" vertex="1" parent="1">
          <mxGeometry x="530" y="1828" width="40" height="30" as="geometry" />
        </mxCell>
        <mxCell id="USC5nnR-OYdE0HIRf4VA-131" value="1-1" style="text;html=1;align=center;verticalAlign=middle;resizable=0;points=[];autosize=1;strokeColor=none;fillColor=none;" vertex="1" parent="1">
          <mxGeometry x="500" y="1700" width="40" height="30" as="geometry" />
        </mxCell>
        <mxCell id="USC5nnR-OYdE0HIRf4VA-132" value="1-n" style="text;html=1;align=center;verticalAlign=middle;resizable=0;points=[];autosize=1;strokeColor=none;fillColor=none;" vertex="1" parent="1">
          <mxGeometry x="460" y="1755" width="40" height="30" as="geometry" />
        </mxCell>
        <mxCell id="USC5nnR-OYdE0HIRf4VA-133" value="Tiene" style="rhombus;whiteSpace=wrap;html=1;" vertex="1" parent="1">
          <mxGeometry x="325" y="1820" width="80" height="80" as="geometry" />
        </mxCell>
        <mxCell id="USC5nnR-OYdE0HIRf4VA-136" value="1-n" style="text;html=1;align=center;verticalAlign=middle;resizable=0;points=[];autosize=1;strokeColor=none;fillColor=none;" vertex="1" parent="1">
          <mxGeometry x="270" y="1830" width="40" height="30" as="geometry" />
        </mxCell>
        <mxCell id="USC5nnR-OYdE0HIRf4VA-137" value="1-1" style="text;html=1;align=center;verticalAlign=middle;resizable=0;points=[];autosize=1;strokeColor=none;fillColor=none;" vertex="1" parent="1">
          <mxGeometry x="405" y="1830" width="40" height="30" as="geometry" />
        </mxCell>
        <mxCell id="USC5nnR-OYdE0HIRf4VA-138" value="1-n" style="text;html=1;align=center;verticalAlign=middle;resizable=0;points=[];autosize=1;strokeColor=none;fillColor=none;" vertex="1" parent="1">
          <mxGeometry x="345" y="1790" width="40" height="30" as="geometry" />
        </mxCell>
        <mxCell id="USC5nnR-OYdE0HIRf4VA-139" style="edgeStyle=orthogonalEdgeStyle;rounded=0;orthogonalLoop=1;jettySize=auto;html=1;entryX=0.5;entryY=1;entryDx=0;entryDy=0;flowAnimation=1;" edge="1" parent="1" source="USC5nnR-OYdE0HIRf4VA-142" target="USC5nnR-OYdE0HIRf4VA-144">
          <mxGeometry relative="1" as="geometry" />
        </mxCell>
        <mxCell id="USC5nnR-OYdE0HIRf4VA-140" style="edgeStyle=orthogonalEdgeStyle;rounded=0;orthogonalLoop=1;jettySize=auto;html=1;flowAnimation=1;" edge="1" parent="1" source="USC5nnR-OYdE0HIRf4VA-142" target="USC5nnR-OYdE0HIRf4VA-143">
          <mxGeometry relative="1" as="geometry" />
        </mxCell>
        <mxCell id="USC5nnR-OYdE0HIRf4VA-141" style="edgeStyle=orthogonalEdgeStyle;rounded=0;orthogonalLoop=1;jettySize=auto;html=1;flowAnimation=1;" edge="1" parent="1" source="USC5nnR-OYdE0HIRf4VA-142" target="USC5nnR-OYdE0HIRf4VA-145">
          <mxGeometry relative="1" as="geometry" />
        </mxCell>
        <mxCell id="USC5nnR-OYdE0HIRf4VA-142" value="Categoria" style="whiteSpace=wrap;html=1;" vertex="1" parent="1">
          <mxGeometry x="175" y="2390" width="120" height="60" as="geometry" />
        </mxCell>
        <mxCell id="USC5nnR-OYdE0HIRf4VA-143" value="nombre" style="ellipse;whiteSpace=wrap;html=1;" vertex="1" parent="1">
          <mxGeometry x="135" y="2300" width="80" height="30" as="geometry" />
        </mxCell>
        <mxCell id="USC5nnR-OYdE0HIRf4VA-144" value="codigo" style="ellipse;whiteSpace=wrap;html=1;" vertex="1" parent="1">
          <mxGeometry x="75" y="2350" width="80" height="30" as="geometry" />
        </mxCell>
        <mxCell id="USC5nnR-OYdE0HIRf4VA-145" value="Tiene" style="rhombus;whiteSpace=wrap;html=1;" vertex="1" parent="1">
          <mxGeometry x="355" y="2380" width="80" height="80" as="geometry" />
        </mxCell>
        <mxCell id="USC5nnR-OYdE0HIRf4VA-146" style="edgeStyle=orthogonalEdgeStyle;rounded=0;orthogonalLoop=1;jettySize=auto;html=1;flowAnimation=1;" edge="1" parent="1" source="USC5nnR-OYdE0HIRf4VA-151" target="USC5nnR-OYdE0HIRf4VA-153">
          <mxGeometry relative="1" as="geometry" />
        </mxCell>
        <mxCell id="USC5nnR-OYdE0HIRf4VA-147" style="edgeStyle=orthogonalEdgeStyle;rounded=0;orthogonalLoop=1;jettySize=auto;html=1;flowAnimation=1;" edge="1" parent="1" source="USC5nnR-OYdE0HIRf4VA-151" target="USC5nnR-OYdE0HIRf4VA-152">
          <mxGeometry relative="1" as="geometry" />
        </mxCell>
        <mxCell id="USC5nnR-OYdE0HIRf4VA-148" style="edgeStyle=orthogonalEdgeStyle;rounded=0;orthogonalLoop=1;jettySize=auto;html=1;entryX=1;entryY=0.5;entryDx=0;entryDy=0;flowAnimation=1;" edge="1" parent="1" source="USC5nnR-OYdE0HIRf4VA-151" target="USC5nnR-OYdE0HIRf4VA-145">
          <mxGeometry relative="1" as="geometry" />
        </mxCell>
        <mxCell id="USC5nnR-OYdE0HIRf4VA-149" style="edgeStyle=orthogonalEdgeStyle;rounded=0;orthogonalLoop=1;jettySize=auto;html=1;entryX=0.5;entryY=1;entryDx=0;entryDy=0;flowAnimation=1;" edge="1" parent="1" source="USC5nnR-OYdE0HIRf4VA-151">
          <mxGeometry relative="1" as="geometry">
            <mxPoint x="605" y="2320" as="targetPoint" />
          </mxGeometry>
        </mxCell>
        <mxCell id="USC5nnR-OYdE0HIRf4VA-150" style="edgeStyle=orthogonalEdgeStyle;rounded=0;orthogonalLoop=1;jettySize=auto;html=1;entryX=0.5;entryY=0;entryDx=0;entryDy=0;flowAnimation=1;" edge="1" parent="1" source="USC5nnR-OYdE0HIRf4VA-151" target="USC5nnR-OYdE0HIRf4VA-187">
          <mxGeometry relative="1" as="geometry">
            <mxPoint x="555" y="2490" as="targetPoint" />
          </mxGeometry>
        </mxCell>
        <mxCell id="USC5nnR-OYdE0HIRf4VA-151" value="Producto" style="whiteSpace=wrap;html=1;" vertex="1" parent="1">
          <mxGeometry x="495" y="2390" width="120" height="60" as="geometry" />
        </mxCell>
        <mxCell id="USC5nnR-OYdE0HIRf4VA-152" value="codigo" style="ellipse;whiteSpace=wrap;html=1;" vertex="1" parent="1">
          <mxGeometry x="425" y="2250" width="80" height="30" as="geometry" />
        </mxCell>
        <mxCell id="USC5nnR-OYdE0HIRf4VA-153" value="nombre" style="ellipse;whiteSpace=wrap;html=1;" vertex="1" parent="1">
          <mxGeometry x="515" y="2250" width="80" height="30" as="geometry" />
        </mxCell>
        <mxCell id="USC5nnR-OYdE0HIRf4VA-154" value="1-n" style="text;html=1;align=center;verticalAlign=middle;resizable=0;points=[];autosize=1;strokeColor=none;fillColor=none;" vertex="1" parent="1">
          <mxGeometry x="295" y="2398" width="40" height="30" as="geometry" />
        </mxCell>
        <mxCell id="USC5nnR-OYdE0HIRf4VA-155" value="1-1" style="text;html=1;align=center;verticalAlign=middle;resizable=0;points=[];autosize=1;strokeColor=none;fillColor=none;" vertex="1" parent="1">
          <mxGeometry x="435" y="2398" width="40" height="30" as="geometry" />
        </mxCell>
        <mxCell id="USC5nnR-OYdE0HIRf4VA-156" value="1 - n" style="text;html=1;align=center;verticalAlign=middle;resizable=0;points=[];autosize=1;strokeColor=default;fillColor=none;glass=0;rounded=0;shadow=0;dashed=1;" vertex="1" parent="1">
          <mxGeometry x="370" y="2350" width="50" height="30" as="geometry" />
        </mxCell>
        <mxCell id="USC5nnR-OYdE0HIRf4VA-157" style="edgeStyle=orthogonalEdgeStyle;rounded=0;orthogonalLoop=1;jettySize=auto;html=1;entryX=0.5;entryY=1;entryDx=0;entryDy=0;flowAnimation=1;" edge="1" parent="1" source="USC5nnR-OYdE0HIRf4VA-161" target="USC5nnR-OYdE0HIRf4VA-163">
          <mxGeometry relative="1" as="geometry" />
        </mxCell>
        <mxCell id="USC5nnR-OYdE0HIRf4VA-158" style="edgeStyle=orthogonalEdgeStyle;rounded=0;orthogonalLoop=1;jettySize=auto;html=1;flowAnimation=1;" edge="1" parent="1" source="USC5nnR-OYdE0HIRf4VA-161" target="USC5nnR-OYdE0HIRf4VA-162">
          <mxGeometry relative="1" as="geometry" />
        </mxCell>
        <mxCell id="USC5nnR-OYdE0HIRf4VA-159" style="edgeStyle=orthogonalEdgeStyle;rounded=0;orthogonalLoop=1;jettySize=auto;html=1;entryX=0.5;entryY=0;entryDx=0;entryDy=0;flowAnimation=1;" edge="1" parent="1" source="USC5nnR-OYdE0HIRf4VA-161" target="USC5nnR-OYdE0HIRf4VA-173">
          <mxGeometry relative="1" as="geometry" />
        </mxCell>
        <mxCell id="USC5nnR-OYdE0HIRf4VA-160" style="edgeStyle=orthogonalEdgeStyle;rounded=0;orthogonalLoop=1;jettySize=auto;html=1;entryX=0;entryY=0.5;entryDx=0;entryDy=0;flowAnimation=1;" edge="1" parent="1" source="USC5nnR-OYdE0HIRf4VA-161" target="USC5nnR-OYdE0HIRf4VA-187">
          <mxGeometry relative="1" as="geometry" />
        </mxCell>
        <mxCell id="USC5nnR-OYdE0HIRf4VA-161" value="Factura" style="whiteSpace=wrap;html=1;" vertex="1" parent="1">
          <mxGeometry x="165" y="2590" width="120" height="60" as="geometry" />
        </mxCell>
        <mxCell id="USC5nnR-OYdE0HIRf4VA-162" value="fecha" style="ellipse;whiteSpace=wrap;html=1;" vertex="1" parent="1">
          <mxGeometry x="125" y="2500" width="80" height="30" as="geometry" />
        </mxCell>
        <mxCell id="USC5nnR-OYdE0HIRf4VA-163" value="valor_pagar" style="ellipse;whiteSpace=wrap;html=1;" vertex="1" parent="1">
          <mxGeometry x="65" y="2550" width="80" height="30" as="geometry" />
        </mxCell>
        <mxCell id="USC5nnR-OYdE0HIRf4VA-164" style="edgeStyle=orthogonalEdgeStyle;rounded=0;orthogonalLoop=1;jettySize=auto;html=1;flowAnimation=1;" edge="1" parent="1" source="USC5nnR-OYdE0HIRf4VA-168" target="USC5nnR-OYdE0HIRf4VA-170">
          <mxGeometry relative="1" as="geometry" />
        </mxCell>
        <mxCell id="USC5nnR-OYdE0HIRf4VA-165" style="edgeStyle=orthogonalEdgeStyle;rounded=0;orthogonalLoop=1;jettySize=auto;html=1;flowAnimation=1;" edge="1" parent="1" source="USC5nnR-OYdE0HIRf4VA-168" target="USC5nnR-OYdE0HIRf4VA-169">
          <mxGeometry relative="1" as="geometry" />
        </mxCell>
        <mxCell id="USC5nnR-OYdE0HIRf4VA-166" style="edgeStyle=orthogonalEdgeStyle;rounded=0;orthogonalLoop=1;jettySize=auto;html=1;entryX=0.5;entryY=1;entryDx=0;entryDy=0;flowAnimation=1;" edge="1" parent="1" source="USC5nnR-OYdE0HIRf4VA-168" target="USC5nnR-OYdE0HIRf4VA-173">
          <mxGeometry relative="1" as="geometry">
            <mxPoint x="325" y="2790" as="targetPoint" />
          </mxGeometry>
        </mxCell>
        <mxCell id="USC5nnR-OYdE0HIRf4VA-167" value="1-n" style="edgeLabel;html=1;align=center;verticalAlign=middle;resizable=0;points=[];" vertex="1" connectable="0" parent="USC5nnR-OYdE0HIRf4VA-166">
          <mxGeometry x="-0.3766" y="2" relative="1" as="geometry">
            <mxPoint x="-4" y="-8" as="offset" />
          </mxGeometry>
        </mxCell>
        <mxCell id="USC5nnR-OYdE0HIRf4VA-168" value="Persona" style="whiteSpace=wrap;html=1;" vertex="1" parent="1">
          <mxGeometry x="155" y="2810" width="120" height="60" as="geometry" />
        </mxCell>
        <mxCell id="USC5nnR-OYdE0HIRf4VA-169" value="dni" style="ellipse;whiteSpace=wrap;html=1;" vertex="1" parent="1">
          <mxGeometry x="35" y="2790" width="80" height="30" as="geometry" />
        </mxCell>
        <mxCell id="USC5nnR-OYdE0HIRf4VA-170" value="nombre" style="ellipse;whiteSpace=wrap;html=1;" vertex="1" parent="1">
          <mxGeometry x="95" y="2750" width="80" height="30" as="geometry" />
        </mxCell>
        <mxCell id="USC5nnR-OYdE0HIRf4VA-171" value="fecha_nacimiento" style="ellipse;whiteSpace=wrap;html=1;fillColor=#d5e8d4;strokeColor=#82b366;" vertex="1" parent="1">
          <mxGeometry x="35" y="2880" width="100" height="40" as="geometry" />
        </mxCell>
        <mxCell id="USC5nnR-OYdE0HIRf4VA-172" style="edgeStyle=orthogonalEdgeStyle;rounded=0;orthogonalLoop=1;jettySize=auto;html=1;entryX=0.583;entryY=0.05;entryDx=0;entryDy=0;entryPerimeter=0;flowAnimation=1;" edge="1" parent="1" source="USC5nnR-OYdE0HIRf4VA-168" target="USC5nnR-OYdE0HIRf4VA-171">
          <mxGeometry relative="1" as="geometry" />
        </mxCell>
        <mxCell id="USC5nnR-OYdE0HIRf4VA-173" value="Tiene" style="rhombus;whiteSpace=wrap;html=1;" vertex="1" parent="1">
          <mxGeometry x="285" y="2700" width="80" height="80" as="geometry" />
        </mxCell>
        <mxCell id="USC5nnR-OYdE0HIRf4VA-174" value="1-1" style="text;html=1;align=center;verticalAlign=middle;resizable=0;points=[];autosize=1;strokeColor=none;fillColor=none;" vertex="1" parent="1">
          <mxGeometry x="225" y="2648" width="40" height="30" as="geometry" />
        </mxCell>
        <mxCell id="USC5nnR-OYdE0HIRf4VA-175" value="1-n" style="edgeLabel;html=1;align=center;verticalAlign=middle;resizable=0;points=[];" vertex="1" connectable="0" parent="1">
          <mxGeometry x="374.9957142857144" y="2740.0000000000005" as="geometry">
            <mxPoint x="2" y="-2" as="offset" />
          </mxGeometry>
        </mxCell>
        <mxCell id="USC5nnR-OYdE0HIRf4VA-185" value="1-n" style="text;html=1;align=center;verticalAlign=middle;resizable=0;points=[];autosize=1;strokeColor=none;fillColor=none;" vertex="1" parent="1">
          <mxGeometry x="515" y="2460" width="40" height="30" as="geometry" />
        </mxCell>
        <mxCell id="USC5nnR-OYdE0HIRf4VA-187" value="Asocia" style="rhombus;whiteSpace=wrap;html=1;" vertex="1" parent="1">
          <mxGeometry x="515" y="2580" width="80" height="80" as="geometry" />
        </mxCell>
        <mxCell id="USC5nnR-OYdE0HIRf4VA-188" value="1-n" style="text;html=1;align=center;verticalAlign=middle;resizable=0;points=[];autosize=1;strokeColor=none;fillColor=none;" vertex="1" parent="1">
          <mxGeometry x="285" y="2590" width="40" height="30" as="geometry" />
        </mxCell>
        <mxCell id="USC5nnR-OYdE0HIRf4VA-191" value="n-m" style="text;html=1;align=center;verticalAlign=middle;resizable=0;points=[];autosize=1;strokeColor=none;fillColor=none;" vertex="1" parent="1">
          <mxGeometry x="535" y="2660" width="40" height="30" as="geometry" />
        </mxCell>
        <mxCell id="USC5nnR-OYdE0HIRf4VA-192" value="Un estudiante puede matricular una o varias materias, mientras, una materia, puede ser vista por uno o varios estudiantes.&amp;nbsp;" style="text;html=1;align=center;verticalAlign=middle;whiteSpace=wrap;rounded=0;fillColor=#dae8fc;strokeColor=#6c8ebf;" vertex="1" parent="1">
          <mxGeometry x="42.5" y="2970" width="237.5" height="60" as="geometry" />
        </mxCell>
        <mxCell id="USC5nnR-OYdE0HIRf4VA-193" style="edgeStyle=orthogonalEdgeStyle;rounded=0;orthogonalLoop=1;jettySize=auto;html=1;entryX=0.5;entryY=1;entryDx=0;entryDy=0;flowAnimation=1;" edge="1" parent="1" source="USC5nnR-OYdE0HIRf4VA-195" target="USC5nnR-OYdE0HIRf4VA-196">
          <mxGeometry relative="1" as="geometry" />
        </mxCell>
        <mxCell id="USC5nnR-OYdE0HIRf4VA-194" style="edgeStyle=orthogonalEdgeStyle;rounded=0;orthogonalLoop=1;jettySize=auto;html=1;flowAnimation=1;entryX=0.5;entryY=1;entryDx=0;entryDy=0;" edge="1" parent="1" source="USC5nnR-OYdE0HIRf4VA-195" target="USC5nnR-OYdE0HIRf4VA-197">
          <mxGeometry relative="1" as="geometry">
            <mxPoint x="120" y="3060" as="targetPoint" />
          </mxGeometry>
        </mxCell>
        <mxCell id="USC5nnR-OYdE0HIRf4VA-209" style="edgeStyle=orthogonalEdgeStyle;rounded=0;orthogonalLoop=1;jettySize=auto;html=1;entryX=0;entryY=0.5;entryDx=0;entryDy=0;" edge="1" parent="1" source="USC5nnR-OYdE0HIRf4VA-195" target="USC5nnR-OYdE0HIRf4VA-208">
          <mxGeometry relative="1" as="geometry" />
        </mxCell>
        <mxCell id="USC5nnR-OYdE0HIRf4VA-211" value="1-n" style="edgeLabel;html=1;align=center;verticalAlign=middle;resizable=0;points=[];" vertex="1" connectable="0" parent="USC5nnR-OYdE0HIRf4VA-209">
          <mxGeometry x="-0.326" y="-3" relative="1" as="geometry">
            <mxPoint x="-7" y="93" as="offset" />
          </mxGeometry>
        </mxCell>
        <mxCell id="USC5nnR-OYdE0HIRf4VA-195" value="Estudiante" style="whiteSpace=wrap;html=1;" vertex="1" parent="1">
          <mxGeometry x="50" y="3160" width="120" height="60" as="geometry" />
        </mxCell>
        <mxCell id="USC5nnR-OYdE0HIRf4VA-196" value="nombre" style="ellipse;whiteSpace=wrap;html=1;" vertex="1" parent="1">
          <mxGeometry x="20" y="3080" width="80" height="30" as="geometry" />
        </mxCell>
        <mxCell id="USC5nnR-OYdE0HIRf4VA-197" value="codigo" style="ellipse;whiteSpace=wrap;html=1;" vertex="1" parent="1">
          <mxGeometry x="85" y="3050" width="80" height="30" as="geometry" />
        </mxCell>
        <mxCell id="USC5nnR-OYdE0HIRf4VA-198" style="edgeStyle=orthogonalEdgeStyle;rounded=0;orthogonalLoop=1;jettySize=auto;html=1;entryX=0.5;entryY=1;entryDx=0;entryDy=0;flowAnimation=1;" edge="1" parent="1" source="USC5nnR-OYdE0HIRf4VA-200" target="USC5nnR-OYdE0HIRf4VA-201">
          <mxGeometry relative="1" as="geometry" />
        </mxCell>
        <mxCell id="USC5nnR-OYdE0HIRf4VA-199" style="edgeStyle=orthogonalEdgeStyle;rounded=0;orthogonalLoop=1;jettySize=auto;html=1;flowAnimation=1;entryX=0.5;entryY=1;entryDx=0;entryDy=0;" edge="1" parent="1" source="USC5nnR-OYdE0HIRf4VA-200" target="USC5nnR-OYdE0HIRf4VA-202">
          <mxGeometry relative="1" as="geometry">
            <mxPoint x="430" y="3060" as="targetPoint" />
          </mxGeometry>
        </mxCell>
        <mxCell id="USC5nnR-OYdE0HIRf4VA-213" style="edgeStyle=orthogonalEdgeStyle;rounded=0;orthogonalLoop=1;jettySize=auto;html=1;entryX=1;entryY=0.5;entryDx=0;entryDy=0;" edge="1" parent="1" source="USC5nnR-OYdE0HIRf4VA-200" target="USC5nnR-OYdE0HIRf4VA-212">
          <mxGeometry relative="1" as="geometry" />
        </mxCell>
        <mxCell id="USC5nnR-OYdE0HIRf4VA-221" value="1-n" style="edgeLabel;html=1;align=center;verticalAlign=middle;resizable=0;points=[];" vertex="1" connectable="0" parent="USC5nnR-OYdE0HIRf4VA-213">
          <mxGeometry x="0.916" y="-3" relative="1" as="geometry">
            <mxPoint x="3" as="offset" />
          </mxGeometry>
        </mxCell>
        <mxCell id="USC5nnR-OYdE0HIRf4VA-200" value="Materia" style="whiteSpace=wrap;html=1;" vertex="1" parent="1">
          <mxGeometry x="425" y="3160" width="120" height="60" as="geometry" />
        </mxCell>
        <mxCell id="USC5nnR-OYdE0HIRf4VA-201" value="nombre" style="ellipse;whiteSpace=wrap;html=1;" vertex="1" parent="1">
          <mxGeometry x="480" y="3070" width="80" height="30" as="geometry" />
        </mxCell>
        <mxCell id="USC5nnR-OYdE0HIRf4VA-202" value="codigo" style="ellipse;whiteSpace=wrap;html=1;" vertex="1" parent="1">
          <mxGeometry x="395" y="3050" width="80" height="30" as="geometry" />
        </mxCell>
        <mxCell id="USC5nnR-OYdE0HIRf4VA-203" style="edgeStyle=orthogonalEdgeStyle;rounded=0;orthogonalLoop=1;jettySize=auto;html=1;entryX=0.5;entryY=1;entryDx=0;entryDy=0;flowAnimation=1;" edge="1" parent="1" source="USC5nnR-OYdE0HIRf4VA-205" target="USC5nnR-OYdE0HIRf4VA-206">
          <mxGeometry relative="1" as="geometry" />
        </mxCell>
        <mxCell id="USC5nnR-OYdE0HIRf4VA-215" style="edgeStyle=orthogonalEdgeStyle;rounded=0;orthogonalLoop=1;jettySize=auto;html=1;entryX=0.5;entryY=1;entryDx=0;entryDy=0;" edge="1" parent="1" source="USC5nnR-OYdE0HIRf4VA-205" target="USC5nnR-OYdE0HIRf4VA-212">
          <mxGeometry relative="1" as="geometry" />
        </mxCell>
        <mxCell id="USC5nnR-OYdE0HIRf4VA-216" style="edgeStyle=orthogonalEdgeStyle;rounded=0;orthogonalLoop=1;jettySize=auto;html=1;entryX=0.5;entryY=1;entryDx=0;entryDy=0;" edge="1" parent="1" source="USC5nnR-OYdE0HIRf4VA-205" target="USC5nnR-OYdE0HIRf4VA-208">
          <mxGeometry relative="1" as="geometry" />
        </mxCell>
        <mxCell id="USC5nnR-OYdE0HIRf4VA-217" value="1-1" style="edgeLabel;html=1;align=center;verticalAlign=middle;resizable=0;points=[];" vertex="1" connectable="0" parent="USC5nnR-OYdE0HIRf4VA-216">
          <mxGeometry x="0.2381" y="-3" relative="1" as="geometry">
            <mxPoint as="offset" />
          </mxGeometry>
        </mxCell>
        <mxCell id="USC5nnR-OYdE0HIRf4VA-205" value="Matricula" style="whiteSpace=wrap;html=1;" vertex="1" parent="1">
          <mxGeometry x="235" y="3420" width="120" height="60" as="geometry" />
        </mxCell>
        <mxCell id="USC5nnR-OYdE0HIRf4VA-206" value="cantidad_materia" style="ellipse;whiteSpace=wrap;html=1;" vertex="1" parent="1">
          <mxGeometry x="85" y="3400" width="115" height="50" as="geometry" />
        </mxCell>
        <mxCell id="USC5nnR-OYdE0HIRf4VA-208" value="Estudia" style="rhombus;whiteSpace=wrap;html=1;" vertex="1" parent="1">
          <mxGeometry x="210" y="3280" width="80" height="80" as="geometry" />
        </mxCell>
        <mxCell id="USC5nnR-OYdE0HIRf4VA-212" value="Asocia" style="rhombus;whiteSpace=wrap;html=1;" vertex="1" parent="1">
          <mxGeometry x="305" y="3280" width="80" height="80" as="geometry" />
        </mxCell>
        <mxCell id="USC5nnR-OYdE0HIRf4VA-218" value="1-n" style="edgeLabel;html=1;align=center;verticalAlign=middle;resizable=0;points=[];" vertex="1" connectable="0" parent="1">
          <mxGeometry x="270.0000000000001" y="3400" as="geometry">
            <mxPoint x="-19" y="-132" as="offset" />
          </mxGeometry>
        </mxCell>
        <mxCell id="USC5nnR-OYdE0HIRf4VA-219" value="1-1" style="edgeLabel;html=1;align=center;verticalAlign=middle;resizable=0;points=[];" vertex="1" connectable="0" parent="1">
          <mxGeometry x="270.0000000000001" y="3397" as="geometry">
            <mxPoint x="93" y="-21" as="offset" />
          </mxGeometry>
        </mxCell>
        <mxCell id="USC5nnR-OYdE0HIRf4VA-220" value="1-n" style="edgeLabel;html=1;align=center;verticalAlign=middle;resizable=0;points=[];" vertex="1" connectable="0" parent="1">
          <mxGeometry x="250.0000000000001" y="3290" as="geometry">
            <mxPoint x="93" y="-21" as="offset" />
          </mxGeometry>
        </mxCell>
        <mxCell id="USC5nnR-OYdE0HIRf4VA-249" style="edgeStyle=orthogonalEdgeStyle;rounded=0;orthogonalLoop=1;jettySize=auto;html=1;entryX=0.5;entryY=1;entryDx=0;entryDy=0;flowAnimation=1;" edge="1" parent="1" source="USC5nnR-OYdE0HIRf4VA-253" target="USC5nnR-OYdE0HIRf4VA-254">
          <mxGeometry relative="1" as="geometry" />
        </mxCell>
        <mxCell id="USC5nnR-OYdE0HIRf4VA-250" style="edgeStyle=orthogonalEdgeStyle;rounded=0;orthogonalLoop=1;jettySize=auto;html=1;flowAnimation=1;entryX=0.5;entryY=1;entryDx=0;entryDy=0;" edge="1" parent="1" source="USC5nnR-OYdE0HIRf4VA-253" target="USC5nnR-OYdE0HIRf4VA-255">
          <mxGeometry relative="1" as="geometry">
            <mxPoint x="180" y="3620" as="targetPoint" />
          </mxGeometry>
        </mxCell>
        <mxCell id="USC5nnR-OYdE0HIRf4VA-253" value="Estudiante" style="whiteSpace=wrap;html=1;" vertex="1" parent="1">
          <mxGeometry x="110" y="3720" width="120" height="60" as="geometry" />
        </mxCell>
        <mxCell id="USC5nnR-OYdE0HIRf4VA-254" value="nombre" style="ellipse;whiteSpace=wrap;html=1;" vertex="1" parent="1">
          <mxGeometry x="80" y="3640" width="80" height="30" as="geometry" />
        </mxCell>
        <mxCell id="USC5nnR-OYdE0HIRf4VA-255" value="codigo" style="ellipse;whiteSpace=wrap;html=1;" vertex="1" parent="1">
          <mxGeometry x="145" y="3610" width="80" height="30" as="geometry" />
        </mxCell>
        <mxCell id="USC5nnR-OYdE0HIRf4VA-256" style="edgeStyle=orthogonalEdgeStyle;rounded=0;orthogonalLoop=1;jettySize=auto;html=1;entryX=0.5;entryY=1;entryDx=0;entryDy=0;flowAnimation=1;" edge="1" parent="1" source="USC5nnR-OYdE0HIRf4VA-260" target="USC5nnR-OYdE0HIRf4VA-261">
          <mxGeometry relative="1" as="geometry" />
        </mxCell>
        <mxCell id="USC5nnR-OYdE0HIRf4VA-257" style="edgeStyle=orthogonalEdgeStyle;rounded=0;orthogonalLoop=1;jettySize=auto;html=1;flowAnimation=1;entryX=0.5;entryY=1;entryDx=0;entryDy=0;" edge="1" parent="1" source="USC5nnR-OYdE0HIRf4VA-260" target="USC5nnR-OYdE0HIRf4VA-262">
          <mxGeometry relative="1" as="geometry">
            <mxPoint x="490" y="3620" as="targetPoint" />
          </mxGeometry>
        </mxCell>
        <mxCell id="USC5nnR-OYdE0HIRf4VA-277" style="edgeStyle=orthogonalEdgeStyle;rounded=0;orthogonalLoop=1;jettySize=auto;html=1;" edge="1" parent="1" source="USC5nnR-OYdE0HIRf4VA-260" target="USC5nnR-OYdE0HIRf4VA-276">
          <mxGeometry relative="1" as="geometry" />
        </mxCell>
        <mxCell id="USC5nnR-OYdE0HIRf4VA-260" value="Materia" style="whiteSpace=wrap;html=1;" vertex="1" parent="1">
          <mxGeometry x="485" y="3720" width="120" height="60" as="geometry" />
        </mxCell>
        <mxCell id="USC5nnR-OYdE0HIRf4VA-261" value="nombre" style="ellipse;whiteSpace=wrap;html=1;" vertex="1" parent="1">
          <mxGeometry x="540" y="3630" width="80" height="30" as="geometry" />
        </mxCell>
        <mxCell id="USC5nnR-OYdE0HIRf4VA-262" value="codigo" style="ellipse;whiteSpace=wrap;html=1;" vertex="1" parent="1">
          <mxGeometry x="455" y="3610" width="80" height="30" as="geometry" />
        </mxCell>
        <mxCell id="USC5nnR-OYdE0HIRf4VA-276" value="Estudia" style="rhombus;whiteSpace=wrap;html=1;" vertex="1" parent="1">
          <mxGeometry x="310" y="3750" width="80" height="80" as="geometry" />
        </mxCell>
        <mxCell id="USC5nnR-OYdE0HIRf4VA-278" style="edgeStyle=orthogonalEdgeStyle;rounded=0;orthogonalLoop=1;jettySize=auto;html=1;entryX=0.078;entryY=0.538;entryDx=0;entryDy=0;entryPerimeter=0;" edge="1" parent="1" source="USC5nnR-OYdE0HIRf4VA-253" target="USC5nnR-OYdE0HIRf4VA-276">
          <mxGeometry relative="1" as="geometry">
            <Array as="points">
              <mxPoint x="270" y="3750" />
              <mxPoint x="270" y="3793" />
            </Array>
          </mxGeometry>
        </mxCell>
        <mxCell id="USC5nnR-OYdE0HIRf4VA-279" value="1-n" style="text;html=1;align=center;verticalAlign=middle;resizable=0;points=[];autosize=1;strokeColor=none;fillColor=none;" vertex="1" parent="1">
          <mxGeometry x="260" y="3768" width="40" height="30" as="geometry" />
        </mxCell>
        <mxCell id="USC5nnR-OYdE0HIRf4VA-280" value="1-n" style="text;html=1;align=center;verticalAlign=middle;resizable=0;points=[];autosize=1;strokeColor=none;fillColor=none;" vertex="1" parent="1">
          <mxGeometry x="390" y="3768" width="40" height="30" as="geometry" />
        </mxCell>
        <mxCell id="USC5nnR-OYdE0HIRf4VA-281" value="n-m" style="text;html=1;align=center;verticalAlign=middle;whiteSpace=wrap;rounded=0;" vertex="1" parent="1">
          <mxGeometry x="330" y="3740" width="40" height="10" as="geometry" />
        </mxCell>
      </root>
    </mxGraphModel>
  </diagram>
</mxfile>
